<svg width="20" height="20" viewBox="0 0 20 20" fill="none" xmlns="http://www.w3.org/2000/svg">
    <path d="M1.36367 17.8012H4.54547V10.0739L0 6.66479V16.4376C0 17.191 0.610234 17.8012 1.36367 17.8012V17.8012Z" fill="#4285F4"/>
    <path d="M15.4551 17.8012H18.6369C19.3903 17.8012 20.0005 17.1909 20.0005 16.4375V6.66479L15.4551 10.0739V17.8012Z" fill="#34A853"/>
    <path d="M15.4551 4.16503V10.0741L20.0005 6.66503V4.84686C20.0005 3.16163 18.0767 2.19913 16.7278 3.2105L15.4551 4.16503Z" fill="#FBBC04"/>
    <path fill-rule="evenodd" clip-rule="evenodd" d="M4.54492 10.0739V4.16479L9.99945 8.25573L15.454 4.16479V10.0739L9.99945 14.1648L4.54492 10.0739Z" fill="#EA4335"/>
    <path d="M0 4.84662V6.66479L4.54547 10.0739V4.16479L3.27273 3.21025C1.92383 2.19889 0 3.16139 0 4.84654V4.84662Z" fill="#C5221F"/>
</svg>
